<svg width="34px" height="20px" viewBox="0 0 34 20" version="1.1" xmlns="http://www.w3.org/2000/svg" xmlns:xlink="http://www.w3.org/1999/xlink">
    <g id="Symbols" stroke="none" stroke-width="1" fill="none" fill-rule="evenodd">
        <g id="footer" transform="translate(-351.000000, -154.000000)">
            <g id="Group-2" transform="translate(130.000000, 50.000000)">
                <g id="Group-6" transform="translate(0.000000, 100.000000)">
                    <g id="XMLID_328_" transform="translate(221.692094, 4.014870)">
                        <rect id="Rectangle-path" fill="#F1F1F1" x="11.6791464" y="2.17867071" width="9.71861826" height="15.6092104"></rect>
                        <path d="M12.6594105,9.98327593 C12.6594105,6.81179325 14.171818,3.998826 16.4964443,2.17867071 C14.787984,0.85492142 12.631403,0.0551562206 10.2787692,0.0551562206 C4.70526763,0.0551562206 0.196052818,4.49523198 0.196052818,9.98327593 C0.196052818,15.4713199 4.70526763,19.9113956 10.2787692,19.9113956 C12.631403,19.9113956 14.787984,19.1116304 16.4964443,17.7878812 C14.171818,15.9677259 12.6594105,13.1547586 12.6594105,9.98327593 Z" id="XMLID_330_" fill="#FFFFFF"></path>
                        <path d="M32.8248432,9.98327593 C32.8248432,15.4713199 28.3156284,19.9113956 22.7421269,19.9113956 C20.3894931,19.9113956 18.2329121,19.1116304 16.5244518,17.7878812 C18.8770856,15.9677259 20.3614855,13.1547586 20.3614855,9.98327593 C20.3614855,6.81179325 18.8490781,3.998826 16.5244518,2.17867071 C18.2329121,0.85492142 20.3894931,0.0551562206 22.7421269,0.0551562206 C28.3156284,0.0551562206 32.8248432,4.49523198 32.8248432,9.98327593 Z" id="Shape" fill="#C7C7C7"></path>
                    </g>
                </g>
            </g>
        </g>
    </g>
</svg>