<svg width="14" height="13" viewBox="0 0 14 13" fill="none" xmlns="http://www.w3.org/2000/svg">
<path fill-rule="evenodd" clip-rule="evenodd" d="M7.6756 0.408084L9.25431 3.51537C9.36382 3.73124 9.57626 3.88083 9.82301 3.91556L13.3535 4.41395C13.9722 4.50115 14.2189 5.23915 13.7714 5.66133L11.2163 8.08059C11.0393 8.2479 10.9582 8.49035 10.9995 8.72856L11.6025 12.1432C11.708 12.7412 11.0623 13.1967 10.5089 12.9141L7.35073 11.3024C7.13099 11.1904 6.86854 11.1904 6.64917 11.3024L3.49065 12.9141C2.93764 13.1967 2.29156 12.7412 2.39705 12.1432L3.00043 8.72856C3.04167 8.49035 2.96174 8.2479 2.78361 8.08059L0.228467 5.66133C-0.219413 5.23774 0.0288008 4.49973 0.646414 4.41395L4.17798 3.91556C4.42327 3.88083 4.63572 3.73124 4.74559 3.51537L6.32393 0.408084C6.60062 -0.136028 7.39928 -0.136028 7.6756 0.408084Z" fill="#FFD012"/>
</svg>
