<svg width="44px" height="14px" viewBox="0 0 44 14" version="1.1" xmlns="http://www.w3.org/2000/svg" xmlns:xlink="http://www.w3.org/1999/xlink">
    <g id="Symbols" stroke="none" stroke-width="1" fill="none" fill-rule="evenodd">
        <g id="footer" transform="translate(-258.000000, -157.000000)" fill="#FFFFFF">
            <g id="Group-2" transform="translate(130.000000, 50.000000)">
                <g id="Group-6" transform="translate(0.000000, 100.000000)">
                    <g id="visa_small" transform="translate(128.821082, 7.026022)">
                        <path d="M15.2846463,13.327728 L17.4198802,0.228274656 L20.8318087,0.228274656 L18.6975413,13.327728 L15.2846463,13.327728 Z M31.0772589,0.5494555 L30.6146463,3.38900066 L30.3089226,3.23926525 C29.6794345,2.9733173 28.870829,2.7179051 27.7539226,2.73610321 C26.4176296,2.73610321 25.7994168,3.3187623 25.7987725,3.86310956 C25.7910409,4.47801443 26.5223295,4.88092718 27.7152642,5.48753116 C29.6855554,6.42233982 30.5959614,7.55445441 30.5821088,9.0467002 C30.5556922,11.7655631 28.224589,13.5212027 24.6390197,13.5212027 C23.1075016,13.5052394 21.6323604,13.1882091 20.8363189,12.8236081 L21.3134283,9.89115679 L21.7528458,10.1005948 C22.8749067,10.5887514 23.6010409,10.7870151 24.966972,10.7870151 C25.948574,10.7870151 27.0023383,10.3847409 27.01007,9.50708069 C27.0165131,8.93399956 26.5687196,8.52342445 25.237581,7.88170129 C23.9444566,7.25626066 22.2283445,6.20587798 22.2502509,4.32317079 C22.2702244,1.77766893 24.6444963,0 28.019055,0 C29.3411732,0 30.4029914,0.286700197 31.0772589,0.5494555 Z M35.6228458,8.68273781 C35.9050523,7.93054887 36.980401,5.02236169 36.980401,5.02236169 C36.9607496,5.05588454 37.2629296,4.26346818 37.4339932,3.77148043 L37.6656216,4.90136016 C37.6656216,4.90136016 38.3212041,8.02856331 38.4555422,8.68273781 L35.6228458,8.68273781 Z M39.8337152,0.241683796 L42.5955378,13.3315592 L39.4261909,13.3315592 C39.4261909,13.3315592 39.1143462,11.826862 39.0112571,11.3693549 C38.5144963,11.3693549 35.031694,11.3626503 34.6399552,11.3626503 C34.5075501,11.7167155 33.9225192,13.3315592 33.9225192,13.3315592 L30.3382386,13.3315592 L35.4053921,1.32718565 C35.7649155,0.473151104 36.3773295,0.241683796 37.1949552,0.241683796 L39.8337152,0.241683796 Z M12.4210232,0.239129674 L16.0378414,0.239129674 L10.6623868,13.3136803 L7.05040096,13.3162344 L3.99445215,1.85940083 C6.16254571,2.9963044 8.09965515,5.26244916 8.72270016,7.35395583 L9.08093494,9.16929805 L12.4210232,0.239129674 Z" id="Fill-2"></path>
                        <path d="M5.54941748,0 L0.0457458076,0 L0,0.272013995 C4.28270962,1.35655806 7.11701677,3.97581019 8.29255516,7.12408485 L7.09704325,1.10561557 C6.89022065,0.275206648 6.29004854,0.029053138 5.54941748,0" id="Fill-6" fill-opacity="0.769999981"></path>
                    </g>
                </g>
            </g>
        </g>
    </g>
</svg>