<svg width="24px" height="14px" viewBox="0 0 24 14" version="1.1" xmlns="http://www.w3.org/2000/svg" xmlns:xlink="http://www.w3.org/1999/xlink">
    <g id="Symbols" stroke="none" stroke-width="1" fill="none" fill-rule="evenodd">
        <g id="footer" transform="translate(-624.000000, -108.000000)" fill="#FFFFFF">
            <g id="Group-2" transform="translate(130.000000, 50.000000)">
                <g id="Group" transform="translate(479.000000, 45.000000)">
                    <path d="M28.0397429,26.492583 C28.0397429,26.492583 28.4684187,26.4452617 28.687518,26.2093874 C28.8892564,25.9927054 28.8828102,25.585859 28.8828102,25.585859 C28.8828102,25.585859 28.8547543,23.6811379 29.7389897,23.4007259 C30.6106256,23.1243429 31.7296364,25.2414973 32.9157469,26.0555564 C33.8127283,26.671613 34.4944195,26.5367545 34.4944195,26.5367545 L37.6661222,26.492583 C37.6661222,26.492583 39.3248601,26.3901755 38.5383441,25.0855419 C38.4739548,24.9790322 38.0799276,24.1207284 36.1801877,22.3573121 C34.1909328,20.51112 34.4575733,20.8099185 36.8533083,17.6169724 C38.3121392,15.6724018 38.8956716,14.4855588 38.7131987,13.9769641 C38.5394429,13.4926162 37.4664348,13.6203692 37.4664348,13.6203692 L33.8951377,13.6427113 C33.8951377,13.6427113 33.6305484,13.6065244 33.4341574,13.7239487 C33.2423814,13.8389557 33.1191701,14.1071345 33.1191701,14.1071345 C33.1191701,14.1071345 32.5534382,15.6118217 31.7998859,16.8915493 C30.2099324,19.5915768 29.5740243,19.7344931 29.3141231,19.566451 C28.7094207,19.1757202 28.8606146,17.9969351 28.8606146,17.159142 C28.8606146,14.542403 29.2574986,13.4512283 28.0875038,13.1689117 C27.6992636,13.0751481 27.4134309,13.0129564 26.4206348,13.002994 C25.1465476,12.9900282 24.0679724,13.0070229 23.457483,13.3059679 C23.0512226,13.5054354 22.737627,13.9483223 22.9288903,13.9739608 C23.164911,14.0054595 23.6992907,14.1179759 23.9826328,14.5037255 C24.3486041,15.0016985 24.3357116,16.1196838 24.3357116,16.1196838 C24.3357116,16.1196838 24.5461671,19.2000402 23.8446976,19.5824934 C23.3632798,19.8450317 22.7029784,19.3092602 21.2850959,16.8595378 C20.5589402,15.6048626 20.010496,14.2174533 20.010496,14.2174533 C20.010496,14.2174533 19.9050119,13.9585777 19.716166,13.8196902 C19.487324,13.6514284 19.1674287,13.5982468 19.1674287,13.5982468 L15.7739163,13.6202227 C15.7739163,13.6202227 15.2644426,13.6347267 15.0777211,13.8562434 C14.9109975,14.0533669 15.064389,14.4607993 15.064389,14.4607993 C15.064389,14.4607993 17.7209776,20.676525 20.7291799,23.8087444 C23.4881759,26.6812824 26.6202488,26.492583 26.6202488,26.492583 L28.0397429,26.492583 Z" id="Fill-153"></path>
                </g>
            </g>
        </g>
    </g>
</svg>