<svg width="21px" height="20px" viewBox="0 0 21 20" version="1.1" xmlns="http://www.w3.org/2000/svg" xmlns:xlink="http://www.w3.org/1999/xlink">
    <g id="Symbols" stroke="none" stroke-width="1" fill="none" fill-rule="evenodd">
        <g id="footer" transform="translate(-315.000000, -154.000000)" fill="#FFFFFF">
            <g id="Group-2" transform="translate(130.000000, 50.000000)">
                <g id="Group-6" transform="translate(0.000000, 100.000000)">
                    <g id="wm_small" transform="translate(185.742025, 4.014870)">
                        <path d="M10.0745727,0.0475712189 C11.6564565,0.0475712189 13.1545803,0.403765635 14.4888436,1.03614833 C14.6984468,1.13227364 14.9074401,1.23803114 15.1170432,1.35479686 L14.1895848,2.15741375 L12.7961609,0.764284707 L10.4443769,2.79254849 L9.04749689,1.31843043 L4.66656728,5.13670876 L7.47516827,8.12956747 L6.37144805,9.06821446 L9.13776246,12.0655944 L8.04054788,13.0020791 L11.9935292,17.2565579 L14.3400274,15.167749 L16.3687664,17.4061517 C15.9652143,17.7094674 15.5256779,17.9948947 15.0414153,18.2586987 C13.5743965,19.067606 11.8788676,19.5307374 10.0745727,19.5307374 C4.52567981,19.5307374 0,15.1541853 0,9.78944918 C0,4.42353363 4.52567981,0.0475712189 10.0745727,0.0475712189" id="Fill-1"></path>
                        <polyline id="Fill-2" points="8.31337759 9.17357881 10.7090746 7.08752189 12.8662997 9.40455477 10.470806 11.4898254 8.31337759 9.17357881"></polyline>
                        <polyline id="Fill-3" points="10.0168353 13.1762448 12.4127356 11.0907776 14.570164 13.4072207 12.174467 15.4932776 10.0168353 13.1762448"></polyline>
                        <polyline id="Fill-4" points="6.59914498 5.21769778 8.99484198 3.13223059 11.1514572 5.44867374 8.7557602 7.53414093 6.59914498 5.21769778"></polyline>
                        <polyline id="Fill-5" points="10.9953222 4.09505633 12.7920949 2.53110337 14.4097596 4.26843573 12.6129869 5.83297842 10.9953222 4.09505633"></polyline>
                        <polyline id="Fill-6" points="14.1877551 11.2600289 15.9851378 9.69548619 17.6028025 11.4332117 15.8060297 12.9973612 14.1877551 11.2600289"></polyline>
                        <polyline id="Fill-7" points="15.7684191 14.7692909 17.5647852 13.2045516 19.1828565 14.941884 17.3860838 16.5060335 15.7684191 14.7692909"></polyline>
                        <polyline id="Fill-8" points="16.49217 6.72641309 17.6900185 5.6835812 18.7683261 6.84180278 17.5710875 7.88443809 16.49217 6.72641309"></polyline>
                        <polyline id="Fill-9" points="14.9617214 3.28496958 16.1595699 2.24233427 17.2380808 3.40055585 16.040029 4.44319116 14.9617214 3.28496958"></polyline>
                        <polyline id="Fill-10" points="18.0236352 10.16766 19.2214837 9.12482814 20.2999946 10.2828531 19.1021461 11.325685 18.0236352 10.16766"></polyline>
                        <polyline id="Fill-11" points="12.651614 7.58898544 14.4481835 6.02424617 16.0658482 7.76157854 14.2696853 9.32572808 12.651614 7.58898544"></polyline>
                    </g>
                </g>
            </g>
        </g>
    </g>
</svg>