<?xml version="1.0" standalone="no"?>
<!DOCTYPE svg PUBLIC "-//W3C//DTD SVG 20010904//EN"
 "http://www.w3.org/TR/2001/REC-SVG-20010904/DTD/svg10.dtd">
<svg version="1.0" xmlns="http://www.w3.org/2000/svg"
 width="700.000000pt" height="700.000000pt" viewBox="0 0 700.000000 700.000000"
 preserveAspectRatio="xMidYMid meet">
<metadata>
Created by potrace 1.11, written by Peter Selinger 2001-2013
</metadata>
<g transform="translate(0.000000,700.000000) scale(0.100000,-0.100000)"
fill="#000000" stroke="none">
<path d="M2281 6636 c-83 -168 -151 -307 -151 -309 0 -3 -27 -63 -61 -134 -33
-70 -70 -148 -80 -173 -11 -25 -24 -54 -29 -65 -70 -154 -206 -504 -234 -601
-6 -19 -14 -20 -184 -22 -252 -4 -307 -9 -487 -46 -36 -8 -130 -43 -175 -66
-100 -51 -173 -121 -228 -221 -22 -40 -68 -169 -76 -214 -28 -157 -33 -237
-33 -470 0 -326 15 -438 79 -575 106 -226 313 -374 630 -449 46 -11 109 -23
141 -26 31 -4 58 -10 58 -14 4 -19 8 -71 14 -196 4 -77 8 -158 10 -180 10
-101 15 -155 20 -215 4 -36 8 -72 10 -80 2 -8 7 -49 10 -90 4 -41 8 -77 10
-80 2 -3 6 -30 9 -60 4 -30 9 -68 11 -85 3 -16 15 -82 26 -145 11 -63 31 -164
44 -225 14 -60 26 -121 29 -135 2 -14 12 -51 21 -84 9 -32 18 -64 19 -70 15
-75 103 -336 162 -483 121 -300 273 -557 448 -758 119 -135 250 -254 277 -250
8 2 70 6 138 10 67 3 130 8 139 10 9 1 60 6 112 10 52 4 102 9 111 10 9 2 40
6 70 10 30 3 88 11 129 16 41 6 89 13 105 15 17 2 54 9 84 15 30 6 64 12 75
14 37 4 178 35 281 61 424 107 843 293 1172 520 50 35 98 70 105 76 7 7 44 39
81 72 l68 58 -5 97 c-6 110 -7 534 -2 601 2 25 7 90 10 146 4 55 8 110 10 121
2 10 7 53 10 95 4 41 8 84 10 94 2 11 7 46 11 79 4 32 8 66 10 75 1 8 5 36 9
61 8 56 10 65 36 214 25 144 25 142 44 233 9 40 16 75 16 77 0 2 17 7 38 10
150 24 300 80 407 150 75 50 175 150 220 221 19 30 35 58 35 63 0 5 4 11 9 13
15 6 81 186 101 275 59 272 39 585 -59 922 l-30 103 76 117 c42 64 111 170
154 236 70 107 77 121 62 132 -9 7 -28 23 -43 36 -123 110 -478 379 -688 521
-425 288 -804 492 -1257 676 -11 4 -36 15 -57 24 -20 9 -39 16 -43 16 -4 0
-21 6 -38 14 -119 54 -651 222 -952 301 -55 15 -107 28 -115 31 -8 2 -42 10
-75 18 -33 7 -121 28 -195 45 -74 18 -155 36 -180 41 -25 5 -54 11 -65 14
-171 37 -258 55 -267 56 -3 0 -74 -137 -157 -304z m-341 -1331 c54 -5 183 -18
190 -20 3 -1 37 -5 75 -9 39 -5 79 -10 90 -13 59 -12 123 -24 150 -29 32 -5
100 -23 125 -32 8 -3 20 -6 26 -7 6 -2 37 -15 70 -31 129 -60 355 -222 488
-349 12 -11 35 -32 53 -46 l32 -27 222 0 221 0 73 33 c41 19 93 43 117 55 100
49 398 165 398 155 0 -3 11 0 25 5 22 8 63 16 185 35 14 2 48 7 75 11 28 5
151 9 275 9 247 0 336 -11 555 -66 205 -52 349 -107 540 -205 125 -64 165 -87
165 -96 0 -8 -53 -97 -114 -193 -17 -27 -37 -61 -44 -75 -7 -14 -21 -35 -30
-48 l-18 -23 -44 63 c-89 128 -234 259 -355 320 -87 44 -260 93 -400 112 -22
3 -60 8 -85 12 -46 7 -501 7 -555 0 -109 -13 -149 -20 -220 -38 -98 -25 -212
-77 -249 -115 -161 -160 -196 -409 -90 -641 13 -29 24 -55 24 -57 0 -3 23 -54
52 -113 79 -164 165 -278 347 -460 110 -109 228 -162 446 -202 80 -14 139 -17
290 -15 105 2 222 8 260 14 130 19 165 23 165 17 0 -3 -24 -76 -53 -164 -41
-125 -56 -158 -69 -156 -34 5 -95 13 -178 24 -134 17 -253 36 -345 54 -164 32
-397 130 -541 226 -171 114 -356 340 -462 562 -79 165 -109 244 -186 498 -50
164 -90 208 -196 215 -101 8 -172 -67 -312 -325 -268 -498 -584 -821 -833
-855 -22 -3 -53 -7 -70 -10 -16 -2 -66 -7 -110 -11 -44 -3 -96 -8 -115 -9 -51
-6 -288 -17 -407 -19 -98 -3 -103 -2 -104 18 0 12 -2 30 -4 41 -12 63 -15 86
-21 141 l-6 62 46 -9 c26 -5 68 -11 95 -14 26 -3 58 -7 70 -10 38 -7 222 -18
291 -17 178 4 343 43 479 114 169 89 327 267 450 508 100 197 138 311 144 430
4 74 -14 131 -64 204 -101 148 -328 272 -534 291 -16 2 -70 7 -120 11 -49 5
-228 8 -397 7 l-307 0 13 31 c56 131 99 232 103 239 5 8 59 6 213 -8z m-360
-288 c0 -7 -5 -30 -10 -52 -5 -22 -11 -56 -15 -75 -3 -19 -12 -69 -20 -110 -9
-41 -17 -84 -19 -95 -9 -46 -19 -111 -21 -125 -2 -18 -18 -123 -20 -130 -1 -3
-5 -30 -9 -60 -4 -30 -9 -66 -11 -80 -2 -14 -7 -70 -10 -125 -4 -55 -9 -107
-10 -117 -2 -10 -7 -80 -11 -155 -4 -76 -8 -154 -9 -173 -2 -19 -3 -63 -4 -96
l-1 -61 -52 12 c-29 7 -82 24 -117 38 -227 94 -357 232 -375 400 -8 69 -8 361
-1 475 19 315 139 470 405 521 80 16 85 16 203 18 78 2 107 -1 107 -10z m401
-430 c47 -31 95 -107 122 -191 18 -58 22 -94 22 -196 0 -144 -22 -233 -77
-316 -77 -114 -172 -125 -256 -29 -30 33 -70 108 -77 144 -2 9 -8 38 -15 66
-25 110 -7 294 39 397 58 129 159 181 242 125z m2957 -340 c45 -42 91 -141
109 -235 13 -67 7 -234 -11 -302 -43 -164 -136 -260 -231 -236 -58 15 -131
107 -161 204 -36 118 -37 269 -3 395 27 102 100 200 156 213 16 3 33 7 38 9
16 4 78 -24 103 -48z m995 -242 c3 -227 -3 -262 -65 -396 -42 -91 -104 -185
-158 -237 -46 -46 -124 -98 -161 -107 l-27 -7 14 73 c16 87 31 140 89 319 97
302 169 473 249 590 l30 45 14 -55 c8 -34 14 -121 15 -225z m-1515 -1231 c77
-9 107 -38 105 -98 -5 -162 -183 -485 -358 -649 -103 -98 -285 -194 -418 -221
-99 -21 -158 -27 -251 -27 -260 0 -512 71 -703 198 -113 74 -275 256 -351 393
-49 86 -79 179 -81 247 -2 57 0 63 32 95 53 53 93 59 397 52 146 -3 299 -7
340 -9 94 -5 614 -6 695 -1 33 2 121 7 195 11 74 4 136 8 137 9 7 6 214 6 261
0z"/>
</g>
</svg>
