<svg width="18px" height="22px" viewBox="0 0 18 22" version="1.1" xmlns="http://www.w3.org/2000/svg" xmlns:xlink="http://www.w3.org/1999/xlink">
    <defs>
        <polygon id="path-1" points="0.00482222996 21.4070485 17.0000484 21.4070485 17.0000484 0.0675971675 0.00482222996 0.0675971675"></polygon>
    </defs>
    <g id="Symbols" stroke="none" stroke-width="1" fill="none" fill-rule="evenodd">
        <g id="footer" transform="translate(-401.000000, -150.000000)">
            <g id="Group-2" transform="translate(130.000000, 50.000000)">
                <g id="Group-6" transform="translate(0.000000, 100.000000)">
                    <g id="yandex_dengi_product_icon_cmyk" transform="translate(271.622746, 0.000000)">
                        <g id="Group-3">
                            <mask id="mask-2" fill="white">
                                <use xlink:href="#path-1"></use>
                            </mask>
                            <g id="Clip-2"></g>
                            <path d="M0.000241111498,10.6528839 C0.000241111498,9.4546263 0.105446095,8.69425407 2.70478878,6.84181546 C4.85678927,5.30825748 11.754507,0.0675971675 11.754507,0.0675971675 L11.754507,8.81594432 L17.0000484,8.81594432 L17.0000484,21.4070485 L1.63867411,21.4070485 C0.737560072,21.4070485 0,20.7029177 0,19.8425692 L0.000241111498,10.6528839" id="Fill-1" fill="#FFFFFF" mask="url(#mask-2)"></path>
                        </g>
                        <polyline id="Fill-4" fill="#C7C7C7" points="11.754507 8.81594432 11.754507 13.8849646 2.11543191 20.1540072 14.3023322 16.3684891 14.3023322 8.81594432 11.754507 8.81594432"></polyline>
                        <path d="M9.18859845,8.04828296 C9.64060214,8.41043804 9.5502657,9.22390589 8.98654701,9.86511988 C8.42323018,10.5062571 7.59975405,10.7323739 7.14775036,10.3702188 C6.6956663,10.0081404 6.78624385,9.19490279 7.34972142,8.55376552 C7.91335974,7.91255153 8.73659476,7.68612787 9.18859845,8.04828296 Z" id="Fill-5" fill="#696969"></path>
                    </g>
                </g>
            </g>
        </g>
    </g>
</svg>