<svg width="24px" height="15px" viewBox="0 0 24 15" version="1.1" xmlns="http://www.w3.org/2000/svg" xmlns:xlink="http://www.w3.org/1999/xlink">
    <g id="Symbols" stroke="none" stroke-width="1" fill="none" fill-rule="evenodd">
        <g id="footer" transform="translate(-626.000000, -163.000000)" fill="#FFFFFF">
            <g id="Group-2" transform="translate(130.000000, 50.000000)">
                <g id="Group-Copy" transform="translate(479.000000, 100.000000)">
                    <path d="M24.9352117,22.6275168 L24.9342852,17.0080737 L30.3383849,19.8275896 L24.9352117,22.6275168 Z M36.8002746,16.0345284 C36.8002746,16.0345284 36.6047847,14.6563705 36.0052115,14.0493854 C35.2446272,13.2528663 34.3921877,13.2488957 34.0012739,13.2022401 C31.2025379,13 27.0043347,13 27.0043347,13 L26.9956653,13 C26.9956653,13 22.7975282,13 19.9987261,13.2022401 C19.6077461,13.2488957 18.7555714,13.2528663 17.9947885,14.0493854 C17.3951491,14.6563705 17.1999901,16.0345284 17.1999901,16.0345284 C17.1999901,16.0345284 17,17.653045 17,19.2714955 L17,20.7888258 C17,22.4072763 17.1999901,24.0257267 17.1999901,24.0257267 C17.1999901,24.0257267 17.3951491,25.404017 17.9947885,26.0108697 C18.7555714,26.8075211 19.7549261,26.7823073 20.2000397,26.8657578 C21.8000926,27.0192247 26.9999669,27.0666744 26.9999669,27.0666744 C26.9999669,27.0666744 31.2025379,27.0603213 34.0012739,26.8580812 C34.3921877,26.8114256 35.2446272,26.8075211 36.0052115,26.0108697 C36.6047847,25.404017 36.8002746,24.0257267 36.8002746,24.0257267 C36.8002746,24.0257267 37,22.4072763 37,20.7888258 L37,19.2714955 C37,17.653045 36.8002746,16.0345284 36.8002746,16.0345284 L36.8002746,16.0345284 Z" id="Fill-155"></path>
                </g>
            </g>
        </g>
    </g>
</svg>